<svg xmlns="http://www.w3.org/2000/svg" width="33" height="33" fill="none" viewBox="0 0 33 33">
  <path stroke="#555" stroke-linecap="round" stroke-linejoin="round" stroke-width="2" d="M9.625 8.748A13.347 13.347 0 0 1 16.5 6.875c8.672 0 12.88 7.814 13.626 9.361a.597.597 0 0 1 0 .53c-.484 1-2.414 4.622-6.063 7.055M19.25 25.85c-.905.184-1.826.277-2.75.275-8.672 0-12.88-7.814-13.626-9.361a.605.605 0 0 1 0-.53A19.346 19.346 0 0 1 5.5 12.265m8.25 1.16a4.125 4.125 0 0 1 5.825 5.824M4.125 4.125l24.75 24.75"/>
</svg>
