<svg xmlns="http://www.w3.org/2000/svg" width="31" height="32" fill="none" viewBox="0 0 31 32">
  <path fill="#555" d="M1.216 26.115A15.02 15.02 0 0 1 4.54 21.31a15.511 15.511 0 0 1 4.926-3.24c.016-.009.033-.013.05-.02-2.569-1.81-4.238-4.756-4.238-8.081C5.277 4.462 9.852 0 15.5 0s10.223 4.462 10.223 9.97c0 3.324-1.67 6.271-4.237 8.084.016.008.033.012.05.02 1.846.76 3.503 1.85 4.925 3.24a15.084 15.084 0 0 1 3.323 4.805A14.629 14.629 0 0 1 31 31.67a.314.314 0 0 1-.094.233.332.332 0 0 1-.236.097h-2.473a.325.325 0 0 1-.33-.314c-.082-3.103-1.36-6.01-3.62-8.213-2.337-2.279-5.44-3.533-8.747-3.533-3.306 0-6.41 1.254-8.748 3.533-2.259 2.203-3.536 5.11-3.619 8.213a.323.323 0 0 1-.33.314H.33a.338.338 0 0 1-.236-.097A.321.321 0 0 1 0 31.67c.041-1.921.45-3.79 1.216-5.555Zm14.284-9.23c1.892 0 3.673-.72 5.013-2.027A6.784 6.784 0 0 0 22.59 9.97a6.785 6.785 0 0 0-2.077-4.889A7.136 7.136 0 0 0 15.5 3.055a7.14 7.14 0 0 0-5.013 2.026A6.785 6.785 0 0 0 8.41 9.97c0 1.845.738 3.582 2.077 4.888a7.136 7.136 0 0 0 5.013 2.026Z"/>
</svg>
